PathFileType	4	(X/Y/Z)	/Users/niels/Desktop/University/Third Semester/Perception and Action/Exam/Gymnastics Motion Tracking/Code for Gym Tracking/Analyzed Data/Webcam_Backflip/id7_5_trajectory_Sports2D/id7_5_trajectory_Sports2D_px_person00.trc
DataRate	CameraRate	NumFrames	NumMarkers	Units	OrigDataRate	OrigDataStartFrame	OrigNumFrames
29.81132075471698	29.81132075471698	12	22	m	29.81132075471698	119	159
Frame#	Time	Hip			RHip			RKnee			RAnkle			RBigToe			RSmallToe			RHeel			LHip			LKnee			LAnkle			LBigToe			LSmallToe			LHeel			Neck			Head			Nose			RShoulder			RElbow			RWrist			LShoulder			LElbow			LWrist		
		X1	Y1	Z1	X2	Y2	Z2	X3	Y3	Z3	X4	Y4	Z4	X5	Y5	Z5	X6	Y6	Z6	X7	Y7	Z7	X8	Y8	Z8	X9	Y9	Z9	X10	Y10	Z10	X11	Y11	Z11	X12	Y12	Z12	X13	Y13	Z13	X14	Y14	Z14	X15	Y15	Z15	X16	Y16	Z16	X17	Y17	Z17	X18	Y18	Z18	X19	Y19	Z19	X20	Y20	Z20	X21	Y21	Z21	X22	Y22	Z22
119	3.991772151898734	1.106503096370722	-0.5375984528580107	0.0	1.069739570469957	-0.5366031105722876	0.0	1.0722528477311426	-0.6835225132605948	0.0	1.0726949414705564	-0.8068057553115437	0.0	1.0775566347432395	-0.8509353871106382	0.0	1.0593302641203204	-0.8439471897679357	0.0	1.073365605698484	-0.8167794253476234	0.0	1.1433087079230861	-0.5383156526693024	0.0	1.1180171777534005	-0.6949665552663864	0.0	1.121448525734564	-0.8340847889161873	0.0	1.1108811940221752	-0.8655761439928911	0.0	1.1325920471266233	-0.8635207032381449	0.0	1.1225073506257752	-0.8497014770760852	0.0	1.1002225009049016	-0.33118033311915596	0.0	1.0938411003337727	-0.2357758690247651	0.0	1.1029853399140706	-0.28661942738860025	0.0	1.0425019876972323	-0.36872661627372905	0.0	1.003097970282015	-0.44499898524578674	0.0	0.9426659053226658	-0.5098411912512163	0.0	1.1589769396987453	-0.35348051616442777	0.0	1.2142707630198173	-0.4303572900820205	0.0	1.2756570959596736	-0.5014776949666437	0.0
120	4.025316455696203	1.103981994991254	-0.5379175178484797	0.0	1.0668468594132101	-0.5372035673493472	0.0	1.070115582266232	-0.6832265383190097	0.0	1.0665425412784715	-0.8202559519532819	0.0	1.0709324587807447	-0.8624718141907698	0.0	1.0514797285187691	-0.8568389967537201	0.0	1.0672577759357968	-0.8332679097658287	0.0	1.1406698816270315	-0.5388397175110111	0.0	1.1170680172094023	-0.6967450619825468	0.0	1.121584737576367	-0.8339527427180661	0.0	1.1104490661637623	-0.8653689945357453	0.0	1.132816504566596	-0.8630805733281638	0.0	1.1223780420400464	-0.8485032582831338	0.0	1.0970784110246	-0.3287444252327092	0.0	1.0902341589783118	-0.23329204275922683	0.0	1.100171269097984	-0.2836820369336354	0.0	1.0397171213458447	-0.368601233395492	0.0	1.0142583515185284	-0.45254358119226024	0.0	0.967819566926444	-0.5306895667610197	0.0	1.1565726287658349	-0.3532116960720499	0.0	1.2014729106774733	-0.43977461797512674	0.0	1.24650108629997	-0.5211304919186596	0.0
121	4.058860759493671	1.1007042556440558	-0.535919798834673	0.0	1.0634477861216318	-0.5357849811172027	0.0	1.0667130023324902	-0.682459012195071	0.0	1.059124380129955	-0.8314059817613975	0.0	1.063515010874017	-0.8724566935102704	0.0	1.043080066710995	-0.8681916967811816	0.0	1.0595230393302857	-0.8469316380270425	0.0	1.1374859291648216	-0.5373774721105985	0.0	1.116118314915263	-0.6968728788753051	0.0	1.1216015921475209	-0.8331394705965087	0.0	1.110469720124053	-0.8651947259938295	0.0	1.1331765464723627	-0.8628043247907413	0.0	1.121990625141927	-0.8468374417482901	0.0	1.093799732983118	-0.3236232001382411	0.0	1.0865925159673337	-0.22789830103947828	0.0	1.0968399881458115	-0.2781675322946112	0.0	1.036666814974801	-0.3650524815049201	0.0	1.0249082036727275	-0.4551155228491107	0.0	0.991474445293729	-0.5421814779649169	0.0	1.1539196937997345	-0.3497747909673204	0.0	1.1882474493153803	-0.4447679830682673	0.0	1.212665904637893	-0.5317198288252053	0.0
122	4.092405063291139	1.096656857880015	-0.532717105567005	0.0	1.0595440223755281	-0.5332956188820294	0.0	1.0620643689714129	-0.6820050672953168	0.0	1.0503540254445713	-0.8404449784286164	0.0	1.0551247739965086	-0.8812872624055031	0.0	1.0338839788978487	-0.8781176602401056	0.0	1.050122831715896	-0.8579618254779641	0.0	1.1338451536986953	-0.5349095839201138	0.0	1.1152073154726454	-0.6961375326771123	0.0	1.1214694417857525	-0.8320519391542588	0.0	1.1109125796160175	-0.8653138798150123	0.0	1.1338149554878754	-0.8628204454875363	0.0	1.1211837300709193	-0.8452623863416654	0.0	1.0904471792209032	-0.3171474784177235	0.0	1.083034651699497	-0.22087016477526852	0.0	1.0932656917712382	-0.27132472899033977	0.0	1.0332495526474197	-0.35941921822030853	0.0	1.0335385469576845	-0.45336941962258936	0.0	1.0110400035355853	-0.5429090598992053	0.0	1.1510532648420635	-0.3443313619006261	0.0	1.17577426743691	-0.44546579630806277	0.0	1.1758350268389683	-0.5314545938485583	0.0
123	4.125949367088608	1.0919109161154075	-0.5294019476274638	0.0	1.0550745684069827	-0.5305409002519055	0.0	1.0562038394488307	-0.6824273335113661	0.0	1.0404512083333308	-0.8481206826987039	0.0	1.045797922031118	-0.8895975109995755	0.0	1.0238375279345835	-0.8870836053288567	0.0	1.0394921970103628	-0.8671982234719929	0.0	1.1297920117535523	-0.5322698974930241	0.0	1.114193535385195	-0.6952738088880963	0.0	1.1211716197749877	-0.8307470415954286	0.0	1.1115168432942235	-0.8657091734365925	0.0	1.1346610042541887	-0.8629983948616768	0.0	1.119979098710407	-0.8438873886939676	0.0	1.0870413027207522	-0.310603556607657	0.0	1.0796383385419683	-0.21351393110608533	0.0	1.0897741447636777	-0.2643728183115937	0.0	1.0292928702293942	-0.35316694947566435	0.0	1.0389181887396945	-0.4486172000268777	0.0	1.0245666654719692	-0.5326313404938758	0.0	1.1480175751814985	-0.33819871777911453	0.0	1.164773922350359	-0.44289279631987055	0.0	1.138558284651727	-0.5205590643164494	0.0
124	4.159493670886076	1.0865573352856124	-0.5268552546415456	0.0	1.0499254433000926	-0.5281790670566376	0.0	1.0491599033728973	-0.6841157397300676	0.0	1.0299429843139227	-0.8552527450056946	0.0	1.0359480072755134	-0.897841283747718	0.0	1.0133067833756677	-0.8955662205187089	0.0	1.0284161349826166	-0.8754693041334983	0.0	1.125273876744364	-0.530095029033208	0.0	1.1127608500418804	-0.6948897644353964	0.0	1.120656677932492	-0.8290610618581894	0.0	1.1119070883953788	-0.8662143367612861	0.0	1.13544748019762	-0.8631194650100793	0.0	1.1185507600741476	-0.8425182151450885	0.0	1.08354853551445	-0.30498999471790117	0.0	1.0764259938173313	-0.20695903774650715	0.0	1.0865355690349592	-0.2583075190098828	0.0	1.0247161133895852	-0.347574248193084	0.0	1.0402595508349768	-0.4426718684592455	0.0	1.0312136110351815	-0.5129204913679986	0.0	1.144866324253918	-0.33257610894791606	0.0	1.1552745467558259	-0.438660725762294	0.0	1.10378112571971	-0.501357510514606	0.0
125	4.193037974683544	1.0806466707674538	-0.525588443151048	0.0	1.0439585364849777	-0.5266816603712993	0.0	1.0411017198645682	-0.6871979032187355	0.0	1.0195677052078265	-0.8622728527532761	0.0	1.02629447607464	-0.9059433238926872	0.0	1.0030261653090344	-0.9036945429053181	0.0	1.017792851107968	-0.8831024337832348	0.0	1.1201727796840297	-0.5288241668493614	0.0	1.1106296615981506	-0.6954187579155411	0.0	1.1199049508470051	-0.8269083115912924	0.0	1.111833066492679	-0.8666772317539381	0.0	1.1359661732225177	-0.8630478381078811	0.0	1.1171337147872114	-0.840897951511691	0.0	1.0798944180900931	-0.300887221863483	0.0	1.0733178201679043	-0.20193987691479365	0.0	1.0834660219004701	-0.25373105254810846	0.0	1.019606189544074	-0.3434249912911531	0.0	1.0374229597226545	-0.4373805244548078	0.0	1.0315276612444444	-0.4878636158456783	0.0	1.1416000578950638	-0.32831201108093205	0.0	1.1468222265187624	-0.4344826006058034	0.0	1.0741253639244746	-0.47801337316089454	0.0
126	4.226582278481012	1.0742172280129967	-0.5256614872253008	0.0	1.0371056407560653	-0.5262524164031257	0.0	1.032436594431455	-0.6913622577414549	0.0	1.0101196513567998	-0.8691035260307597	0.0	1.0176155923495127	-0.9133923469764426	0.0	0.9938095231058905	-0.9111700890460729	0.0	1.0084352053018883	-0.889935270620542	0.0	1.1144223365912502	-0.5286696491284454	0.0	1.1076889859791128	-0.6970757983859368	0.0	1.1190088924004742	-0.8243959426238069	0.0	1.1113253395671951	-0.867064832078405	0.0	1.136184921627973	-0.8627888004408152	0.0	1.1159624786111997	-0.8387828174691533	0.0	1.075985990403508	-0.2983666089444278	0.0	1.0701549827537784	-0.1986104466853244	0.0	1.0803448356824983	-0.25073798743809766	0.0	1.0141420098710547	-0.340859160007727	0.0	1.0310874786841355	-0.4339988787519918	0.0	1.0271098868541133	-0.46376849692089106	0.0	1.1381313615859003	-0.3257727493565746	0.0	1.1390114736377248	-0.4317172928827119	0.0	1.0512702262183766	-0.4556918426753313	0.0
127	4.260126582278481	1.0673654419645469	-0.5267234734744504	0.0	1.0294934842495607	-0.5267716656335477	0.0	1.0237452337677406	-0.6958338880791984	0.0	1.0022632951502186	-0.8753014931294307	0.0	1.0105366091352554	-0.9196282152819482	0.0	0.9862963478036049	-0.9174965311963547	0.0	1.000921687288114	-0.895601414208178	0.0	1.1080962380955834	-0.5295524994146452	0.0	1.1039098001125183	-0.6998073292717036	0.0	1.1180836225451243	-0.8216614042499594	0.0	1.1105403024010099	-0.8674378982488921	0.0	1.136071438460961	-0.8623895736563899	0.0	1.115178156916512	-0.8358890839606617	0.0	1.0717223984729372	-0.2970133070780423	0.0	1.0667505275487394	-0.19655678527656426	0.0	1.076946201074994	-0.24894435156478747	0.0	1.0084669657110992	-0.3394838877603436	0.0	1.0224460764535055	-0.43286937003523	0.0	1.01964305279256	-0.44734774773270775	0.0	1.13437671841531	-0.32482809882882113	0.0	1.1318567460590516	-0.4310030994312031	0.0	1.0357134137848667	-0.43919855588530904	0.0
128	4.293670886075949	1.060304113840115	-0.5281555974784239	0.0	1.0214910649384137	-0.5277749311761373	0.0	1.0156357858192893	-0.6997185131054128	0.0	0.9963682548714687	-0.8803376195259184	0.0	1.005403822303972	-0.9243176560256161	0.0	0.9808424931517289	-0.9222671308463947	0.0	0.9955237425897309	-0.8998214198970178	0.0	1.101437264502262	-0.531034191979253	0.0	1.0992577334833378	-0.7033012907742385	0.0	1.1170338772441541	-0.8186960391313072	0.0	1.1094911331115862	-0.8677995350041496	0.0	1.1354504948447506	-0.8617915568220669	0.0	1.1146619390550463	-0.8319220756525004	0.0	1.0670417882143675	-0.29610973288145964	0.0	1.0629271949116932	-0.19500545691355875	0.0	1.073068378754099	-0.24767241823242309	0.0	1.002646193380462	-0.3386301518430136	0.0	1.0125795926664383	-0.43360509787061247	0.0	1.0099727216087602	-0.44338961063813553	0.0	1.130387341583723	-0.3249170288206104	0.0	1.1257041787694495	-0.43211599201178214	0.0	1.0270378271433882	-0.43183525166716047	0.0
129	4.327215189873417	1.0533732874464596	-0.5293024847799971	0.0	1.0136326445888095	-0.528609899429904	0.0	1.008620601263766	-0.7025378406879607	0.0	0.9924682782571344	-0.8839009964811835	0.0	1.0022230299133266	-0.9274306236363297	0.0	0.977475876918946	-0.9253331272817866	0.0	0.992242363982345	-0.9025690806863153	0.0	1.0948270183142907	-0.5324103967954472	0.0	1.0938083146087259	-0.7071022882755293	0.0	1.1154227797317067	-0.8154380027909697	0.0	1.1079780999467348	-0.8680647899024717	0.0	1.134049130885239	-0.8608831607700397	0.0	1.1138763245459022	-0.8268729556941578	0.0	1.0620020966807453	-0.29491635225723506	0.0	1.0586073934782523	-0.1931242738267984	0.0	1.0686391355240106	-0.24621525372657802	0.0	0.9967175472011891	-0.3376108674758566	0.0	1.0021746616632594	-0.4355105511000942	0.0	0.9979977929289066	-0.45328933582616093	0.0	1.1263606711785188	-0.32522735153626803	0.0	1.1208745309944408	-0.43422216488731225	0.0	1.0245199434547743	-0.4349010869174152	0.0
130	4.360759493670886	1.0469700346246562	-0.5297239911239555	0.0	1.0064527702514852	-0.5287904698154003	0.0	1.0030205030620156	-0.7044925097973775	0.0	0.9903562694576833	-0.8860421704236525	0.0	1.0007090547847188	-0.9292467324219204	0.0	0.9759006898042016	-0.926910148072187	0.0	0.9908432835269048	-0.9040595983629659	0.0	1.088675395587516	-0.5330140201516929	0.0	1.0879141368292602	-0.7107607739908969	0.0	1.1125910340515626	-0.81212285443796	0.0	1.1056797175084128	-0.868289401196189	0.0	1.1315930201016848	-0.8597895490121986	0.0	1.1118967534239412	-0.8214202772661073	0.0	1.0567956378263035	-0.2929637935347558	0.0	1.0539231544813183	-0.19035205065439356	0.0	1.0638699954479112	-0.24407074979487797	0.0	0.9907497938878844	-0.33595603064701596	0.0	0.9916392153438269	-0.43785344124836156	0.0	0.9833460047192955	-0.474337704287559	0.0	1.1225212742027608	-0.3250552634053513	0.0	1.1173853943150427	-0.43638598239052545	0.0	1.0276828293838358	-0.44763834011488624	0.0
